<svg xmlns="http://www.w3.org/2000/svg" viewBox="0 0 520 290" role="img" aria-labelledby="title desc" style="max-width:100%;height:auto"><title id="title">Contacto con una rampa ascendente</title><desc id="desc">Salida horizontal y rampa y=x/2. Todos los datos necesarios se detallan en el enunciado.</desc><defs><marker id="arrow" markerWidth="7" markerHeight="7" refX="6" refY="3.5" orient="auto-start-reverse"><path d="M0 0 L7 3.5 L0 7Z" fill="context-stroke"/></marker></defs><rect width="100%" height="100%" fill="white"/><g font-family="Arial,sans-serif" font-size="13" fill="#203148">
<text x="16" y="23" font-size="15" font-weight="bold">Salida horizontal y rampa y=x/2</text>
<path d="M79.26 65V225 M65 213.97H450" stroke="#e1e7ee" fill="none"/><text x="79.26" y="245" text-anchor="middle">0</text><text x="57" y="217.97" text-anchor="end">0</text>
<path d="M168.38 65V225 M65 179.48H450" stroke="#e1e7ee" fill="none"/><text x="168.38" y="245" text-anchor="middle">6.92</text><text x="57" y="183.48" text-anchor="end">2.88</text>
<path d="M257.50 65V225 M65 145.00H450" stroke="#e1e7ee" fill="none"/><text x="257.50" y="245" text-anchor="middle">13.8</text><text x="57" y="149.00" text-anchor="end">5.75</text>
<path d="M346.62 65V225 M65 110.52H450" stroke="#e1e7ee" fill="none"/><text x="346.62" y="245" text-anchor="middle">20.8</text><text x="57" y="114.52" text-anchor="end">8.62</text>
<path d="M435.74 65V225 M65 76.03H450" stroke="#e1e7ee" fill="none"/><text x="435.74" y="245" text-anchor="middle">27.7</text><text x="57" y="80.03" text-anchor="end">11.5</text>
<path d="M65 213.97H462 M79.26 225V55" stroke="#516276" stroke-width="1.5" fill="none" marker-end="url(#arrow)"/><text x="450" y="269" text-anchor="end">x (m)</text><text x="65" y="49">y (m)</text>
<polyline points="79.26,94.03 80.74,94.05 82.21,94.11 83.69,94.22 85.16,94.38 86.64,94.57 88.11,94.81 89.59,95.10 91.07,95.42 92.54,95.80 94.02,96.21 95.49,96.67 96.97,97.17 98.45,97.72 99.92,98.31 101.40,98.95 102.87,99.62 104.35,100.34 105.83,101.11 107.30,101.92 108.78,102.77 110.25,103.67 111.73,104.61 113.21,105.59 114.68,106.62 116.16,107.69 117.63,108.81 119.11,109.97 120.59,111.17 122.06,112.41 123.54,113.70 125.01,115.04 126.49,116.42 127.96,117.84 129.44,119.30 130.92,120.81 132.39,122.36 133.87,123.96 135.34,125.60 136.82,127.28 138.30,129.01 139.77,130.78 141.25,132.60 142.72,134.45 144.20,136.36 145.68,138.30 147.15,140.29 148.63,142.33 150.10,144.40 151.58,146.52 153.06,148.69 154.53,150.90 156.01,153.15 157.48,155.45 158.96,157.79 160.43,160.17 161.91,162.60 163.39,165.07 164.86,167.58 166.34,170.14 167.81,172.74" fill="none" stroke="#245b99" stroke-width="2.5"/><text x="185" y="44" fill="#245b99">trayectoria</text>
<polyline points="79.26,213.97 167.81,213.97" fill="none" stroke="#18776b" stroke-width="2.5"/><text x="290" y="44" fill="#18776b">suelo</text>
<polyline points="79.26,213.97 167.81,172.74" fill="none" stroke="#ba513c" stroke-width="2.5"/><text x="395" y="44" fill="#ba513c">rampa</text>
<path d="M79.26,94.03 L101.16,94.03" stroke="#ba513c" stroke-width="2.5" marker-end="url(#arrow)"/><text x="106.16" y="87.03">v₀</text>
<circle cx="79.26" cy="213.97" r="3.5" fill="#245b99"/><text x="84.26" y="206.97">O</text>
</g></svg>