<svg xmlns="http://www.w3.org/2000/svg" viewBox="0 0 520 290" role="img" aria-labelledby="title desc" style="max-width:100%;height:auto"><title id="title">Lanzamiento desde una plataforma móvil</title><desc id="desc">Suelo y plataforma: posiciones al cabo de 1 s. Todos los datos necesarios se detallan en el enunciado.</desc><defs><marker id="arrow" markerWidth="7" markerHeight="7" refX="6" refY="3.5" orient="auto-start-reverse"><path d="M0 0 L7 3.5 L0 7Z" fill="context-stroke"/></marker></defs><rect width="100%" height="100%" fill="white"/><g font-family="Arial,sans-serif" font-size="13" fill="#203148">
<text x="16" y="23" font-size="15" font-weight="bold">Suelo y plataforma: posiciones al cabo de 1 s</text>
<path d="M79.26 65V225 M65 213.97H450" stroke="#e1e7ee" fill="none"/><text x="79.26" y="245" text-anchor="middle">0</text><text x="57" y="217.97" text-anchor="end">0</text>
<path d="M168.38 65V225 M65 179.48H450" stroke="#e1e7ee" fill="none"/><text x="168.38" y="245" text-anchor="middle">3.01</text><text x="57" y="183.48" text-anchor="end">1.25</text>
<path d="M257.50 65V225 M65 145.00H450" stroke="#e1e7ee" fill="none"/><text x="257.50" y="245" text-anchor="middle">6.02</text><text x="57" y="149.00" text-anchor="end">2.5</text>
<path d="M346.62 65V225 M65 110.52H450" stroke="#e1e7ee" fill="none"/><text x="346.62" y="245" text-anchor="middle">9.02</text><text x="57" y="114.52" text-anchor="end">3.75</text>
<path d="M435.74 65V225 M65 76.03H450" stroke="#e1e7ee" fill="none"/><text x="435.74" y="245" text-anchor="middle">12</text><text x="57" y="80.03" text-anchor="end">5</text>
<path d="M65 213.97H462 M79.26 225V55" stroke="#516276" stroke-width="1.5" fill="none" marker-end="url(#arrow)"/><text x="450" y="269" text-anchor="end">x (m)</text><text x="65" y="49">y (m)</text>
<polyline points="79.26,76.03 82.72,76.07 86.17,76.19 89.63,76.38 93.09,76.65 96.54,76.99 100.00,77.41 103.46,77.91 106.91,78.49 110.37,79.14 113.83,79.87 117.28,80.67 120.74,81.55 124.20,82.51 127.65,83.54 131.11,84.66 134.57,85.84 138.02,87.11 141.48,88.45 144.94,89.87 148.40,91.36 151.85,92.93 155.31,94.58 158.77,96.30 162.22,98.10 165.68,99.98 169.14,101.93 172.59,103.97 176.05,106.07 179.51,108.26 182.96,110.52 186.42,112.85 189.88,115.27 193.33,117.76 196.79,120.33 200.25,122.97 203.70,125.69 207.16,128.49 210.62,131.36 214.07,134.31 217.53,137.34 220.99,140.44 224.44,143.62 227.90,146.88 231.36,150.21 234.81,153.62 238.27,157.11 241.73,160.67 245.19,164.31 248.64,168.03 252.10,171.82 255.56,175.69 259.01,179.64 262.47,183.66 265.93,187.76 269.38,191.93 272.84,196.19 276.30,200.52 279.75,204.92 283.21,209.41 286.67,213.97" fill="none" stroke="#245b99" stroke-width="2.5"/><text x="185" y="44" fill="#245b99">bola</text>
<polyline points="79.26,76.03 197.78,76.03" fill="none" stroke="#18776b" stroke-width="2.5"/><text x="290" y="44" fill="#18776b">plataforma</text>
<circle cx="286.67" cy="213.97" r="3.5" fill="#245b99"/><text x="291.67" y="206.97">impacto</text>
<circle cx="197.78" cy="213.97" r="3.5" fill="#245b99"/><text x="202.78" y="206.97">pie móvil</text>
</g></svg>