<svg xmlns="http://www.w3.org/2000/svg" viewBox="0 0 520 290" role="img" aria-labelledby="title desc" style="max-width:100%;height:auto"><title id="title">Lanzamiento horizontal hacia una rampa descendente</title><desc id="desc">Rampa descendente y=−0,4x. Todos los datos necesarios se detallan en el enunciado.</desc><defs><marker id="arrow" markerWidth="7" markerHeight="7" refX="6" refY="3.5" orient="auto-start-reverse"><path d="M0 0 L7 3.5 L0 7Z" fill="context-stroke"/></marker></defs><rect width="100%" height="100%" fill="white"/><g font-family="Arial,sans-serif" font-size="13" fill="#203148">
<text x="16" y="23" font-size="15" font-weight="bold">Rampa descendente y=−0,4x</text>
<path d="M79.26 65V225 M65 213.97H450" stroke="#e1e7ee" fill="none"/><text x="79.26" y="245" text-anchor="middle">0</text><text x="57" y="217.97" text-anchor="end">-2.96</text>
<path d="M168.38 65V225 M65 179.48H450" stroke="#e1e7ee" fill="none"/><text x="168.38" y="245" text-anchor="middle">7.32</text><text x="57" y="183.48" text-anchor="end">0.0791</text>
<path d="M257.50 65V225 M65 145.00H450" stroke="#e1e7ee" fill="none"/><text x="257.50" y="245" text-anchor="middle">14.6</text><text x="57" y="149.00" text-anchor="end">3.12</text>
<path d="M346.62 65V225 M65 110.52H450" stroke="#e1e7ee" fill="none"/><text x="346.62" y="245" text-anchor="middle">21.9</text><text x="57" y="114.52" text-anchor="end">6.16</text>
<path d="M435.74 65V225 M65 76.03H450" stroke="#e1e7ee" fill="none"/><text x="435.74" y="245" text-anchor="middle">29.3</text><text x="57" y="80.03" text-anchor="end">9.2</text>
<path d="M65 180.38H462 M79.26 225V55" stroke="#516276" stroke-width="1.5" fill="none" marker-end="url(#arrow)"/><text x="450" y="269" text-anchor="end">x (m)</text><text x="65" y="49">y (m)</text>
<polyline points="79.26,89.64 80.76,89.68 82.27,89.78 83.77,89.96 85.27,90.20 86.77,90.51 88.28,90.89 89.78,91.34 91.28,91.85 92.79,92.44 94.29,93.10 95.79,93.82 97.30,94.62 98.80,95.48 100.30,96.41 101.81,97.41 103.31,98.49 104.81,99.62 106.31,100.83 107.82,102.11 109.32,103.46 110.82,104.87 112.33,106.36 113.83,107.91 115.33,109.54 116.84,111.23 118.34,112.99 119.84,114.82 121.35,116.72 122.85,118.69 124.35,120.72 125.85,122.83 127.36,125.01 128.86,127.25 130.36,129.57 131.87,131.95 133.37,134.40 134.87,136.92 136.38,139.51 137.88,142.17 139.38,144.90 140.89,147.70 142.39,150.56 143.89,153.50 145.39,156.50 146.90,159.58 148.40,162.72 149.90,165.93 151.41,169.21 152.91,172.56 154.41,175.98 155.92,179.47 157.42,183.02 158.92,186.65 160.43,190.34 161.93,194.11 163.43,197.94 164.93,201.84 166.44,205.82 167.94,209.86 169.44,213.97" fill="none" stroke="#245b99" stroke-width="2.5"/><text x="185" y="44" fill="#245b99">trayectoria</text>
<polyline points="79.26,180.38 169.44,180.38" fill="none" stroke="#18776b" stroke-width="2.5"/><text x="290" y="44" fill="#18776b">suelo</text>
<polyline points="79.26,180.38 169.44,213.97" fill="none" stroke="#ba513c" stroke-width="2.5"/><text x="395" y="44" fill="#ba513c">rampa</text>
<path d="M79.26,89.64 L95.83,89.64" stroke="#ba513c" stroke-width="2.5" marker-end="url(#arrow)"/><text x="100.83" y="82.64">v₀</text>
<circle cx="79.26" cy="180.38" r="3.5" fill="#245b99"/><text x="84.26" y="173.38">O</text>
</g></svg>