<svg xmlns="http://www.w3.org/2000/svg" viewBox="0 0 520 290" role="img" aria-labelledby="title desc" style="max-width:100%;height:auto"><title id="title">Aceleración negativa antes y después del giro</title><desc id="desc">Una pendiente negativa, dos efectos sobre |v|. Todos los datos necesarios se detallan en el enunciado.</desc><defs><marker id="arrow" markerWidth="7" markerHeight="7" refX="6" refY="3.5" orient="auto-start-reverse"><path d="M0 0 L7 3.5 L0 7Z" fill="context-stroke"/></marker></defs><rect width="100%" height="100%" fill="white"/><g font-family="Arial,sans-serif" font-size="13" fill="#203148">
<text x="16" y="23" font-size="15" font-weight="bold">Una pendiente negativa, dos efectos sobre |v|</text>
<path d="M79.26 65V225 M65 213.97H450" stroke="#e1e7ee" fill="none"/><text x="79.26" y="245" text-anchor="middle">0</text><text x="57" y="217.97" text-anchor="end">-3</text>
<path d="M168.38 65V225 M65 179.48H450" stroke="#e1e7ee" fill="none"/><text x="168.38" y="245" text-anchor="middle">1.5</text><text x="57" y="183.48" text-anchor="end">-1.5</text>
<path d="M257.50 65V225 M65 145.00H450" stroke="#e1e7ee" fill="none"/><text x="257.50" y="245" text-anchor="middle">3</text><text x="57" y="149.00" text-anchor="end">0</text>
<path d="M346.62 65V225 M65 110.52H450" stroke="#e1e7ee" fill="none"/><text x="346.62" y="245" text-anchor="middle">4.5</text><text x="57" y="114.52" text-anchor="end">1.5</text>
<path d="M435.74 65V225 M65 76.03H450" stroke="#e1e7ee" fill="none"/><text x="435.74" y="245" text-anchor="middle">6</text><text x="57" y="80.03" text-anchor="end">3</text>
<path d="M65 145.00H462 M79.26 225V55" stroke="#516276" stroke-width="1.5" fill="none" marker-end="url(#arrow)"/><text x="450" y="269" text-anchor="end">t (s)</text><text x="65" y="49">v (m/s)</text>
<polyline points="79.26,76.03 435.74,213.97" fill="none" stroke="#245b99" stroke-width="2.5"/><text x="185" y="44" fill="#245b99">v</text>
</g></svg>